<mxfile host="app.diagrams.net" modified="2021-04-18T08:03:23.430Z" agent="5.0 (Windows NT 10.0; Win64; x64) AppleWebKit/537.36 (KHTML, like Gecko) Chrome/89.0.4389.114 Safari/537.36" etag="wF4iaLr5WH6HbdRwkGJf" version="14.6.1" type="github">
  <diagram name="Page-1" id="ad52d381-51e7-2e0d-a935-2d0ddd2fd229">
    <mxGraphModel dx="2062" dy="1122" grid="0" gridSize="10" guides="1" tooltips="1" connect="1" arrows="1" fold="1" page="1" pageScale="1" pageWidth="1100" pageHeight="850" background="#ffffff" math="0" shadow="0">
      <root>
        <mxCell id="0" />
        <mxCell id="1" parent="0" />
        <mxCell id="4xQbK2JNPyIcANhsIO05-2" value="&lt;p style=&quot;margin-top: 0pt ; margin-bottom: 0pt ; margin-left: 0in ; direction: ltr ; unicode-bidi: embed ; word-break: normal&quot;&gt;&lt;span style=&quot;font-size: 18pt&quot;&gt;商品&lt;/span&gt;&lt;span style=&quot;font-size: 18pt&quot;&gt;Spu&lt;/span&gt;&lt;/p&gt;" style="rounded=0;whiteSpace=wrap;html=1;gradientColor=none;strokeWidth=2;" parent="1" vertex="1">
          <mxGeometry x="326" y="164" width="120" height="60" as="geometry" />
        </mxCell>
        <mxCell id="4xQbK2JNPyIcANhsIO05-3" value="&lt;p style=&quot;margin-top: 0pt ; margin-bottom: 0pt ; margin-left: 0in ; direction: ltr ; unicode-bidi: embed ; word-break: normal&quot;&gt;&lt;span style=&quot;font-size: 18pt&quot;&gt;商品&lt;/span&gt;&lt;span style=&quot;font-size: 18pt&quot;&gt;Sku&lt;/span&gt;&lt;/p&gt;" style="rounded=0;whiteSpace=wrap;html=1;gradientColor=none;strokeWidth=2;" parent="1" vertex="1">
          <mxGeometry x="320" y="402" width="120" height="60" as="geometry" />
        </mxCell>
        <mxCell id="4xQbK2JNPyIcANhsIO05-4" value="&lt;p style=&quot;margin-top: 0pt ; margin-bottom: 0pt ; margin-left: 0in ; direction: ltr ; unicode-bidi: embed ; word-break: normal&quot;&gt;&lt;span style=&quot;font-size: 24px&quot;&gt;分类表&lt;/span&gt;&lt;/p&gt;" style="rounded=0;whiteSpace=wrap;html=1;gradientColor=none;strokeWidth=2;" parent="1" vertex="1">
          <mxGeometry x="512" y="162" width="120" height="60" as="geometry" />
        </mxCell>
        <mxCell id="4xQbK2JNPyIcANhsIO05-5" value="&lt;p style=&quot;margin-top: 0pt ; margin-bottom: 0pt ; margin-left: 0in ; direction: ltr ; unicode-bidi: embed ; word-break: normal&quot;&gt;&lt;span style=&quot;font-size: 24px&quot;&gt;品牌表&lt;/span&gt;&lt;/p&gt;" style="rounded=0;whiteSpace=wrap;html=1;gradientColor=none;strokeWidth=2;" parent="1" vertex="1">
          <mxGeometry x="512" y="404" width="120" height="60" as="geometry" />
        </mxCell>
        <mxCell id="4xQbK2JNPyIcANhsIO05-6" value="&lt;p style=&quot;margin-top: 0pt ; margin-bottom: 0pt ; margin-left: 0in ; direction: ltr ; unicode-bidi: embed ; word-break: normal&quot;&gt;&lt;span style=&quot;font-size: 24px&quot;&gt;规格模板&lt;/span&gt;&lt;/p&gt;" style="rounded=0;whiteSpace=wrap;html=1;gradientColor=none;strokeWidth=2;" parent="1" vertex="1">
          <mxGeometry x="878" y="162" width="120" height="60" as="geometry" />
        </mxCell>
        <mxCell id="4xQbK2JNPyIcANhsIO05-8" value="&lt;font style=&quot;font-size: 24px&quot;&gt;包含&lt;/font&gt;" style="rhombus;whiteSpace=wrap;html=1;strokeWidth=2;gradientColor=none;" parent="1" vertex="1">
          <mxGeometry x="300" y="268" width="160" height="80" as="geometry" />
        </mxCell>
        <mxCell id="4xQbK2JNPyIcANhsIO05-10" value="" style="endArrow=none;html=1;entryX=0.442;entryY=1.017;entryDx=0;entryDy=0;exitX=0.5;exitY=0;exitDx=0;exitDy=0;strokeWidth=2;verticalAlign=top;entryPerimeter=0;" parent="1" source="4xQbK2JNPyIcANhsIO05-8" target="4xQbK2JNPyIcANhsIO05-2" edge="1">
          <mxGeometry width="50" height="50" relative="1" as="geometry">
            <mxPoint x="524" y="482" as="sourcePoint" />
            <mxPoint x="574" y="432" as="targetPoint" />
          </mxGeometry>
        </mxCell>
        <mxCell id="4xQbK2JNPyIcANhsIO05-13" value="1" style="edgeLabel;html=1;align=center;verticalAlign=bottom;resizable=0;points=[];fontSize=20;" parent="4xQbK2JNPyIcANhsIO05-10" vertex="1" connectable="0">
          <mxGeometry x="0.1498" y="-1" relative="1" as="geometry">
            <mxPoint x="9" y="20" as="offset" />
          </mxGeometry>
        </mxCell>
        <mxCell id="4xQbK2JNPyIcANhsIO05-12" value="n" style="endArrow=none;html=1;entryX=0.5;entryY=0;entryDx=0;entryDy=0;exitX=0.5;exitY=1;exitDx=0;exitDy=0;strokeWidth=2;fontSize=20;verticalAlign=bottom;" parent="1" source="4xQbK2JNPyIcANhsIO05-8" target="4xQbK2JNPyIcANhsIO05-3" edge="1">
          <mxGeometry x="0.1882" y="-13" width="50" height="50" relative="1" as="geometry">
            <mxPoint x="314" y="53" as="sourcePoint" />
            <mxPoint x="535" y="63" as="targetPoint" />
            <mxPoint as="offset" />
          </mxGeometry>
        </mxCell>
        <mxCell id="4xQbK2JNPyIcANhsIO05-16" value="n" style="endArrow=none;html=1;exitX=1;exitY=0.5;exitDx=0;exitDy=0;strokeWidth=2;fontSize=20;verticalAlign=bottom;" parent="1" source="4xQbK2JNPyIcANhsIO05-2" edge="1">
          <mxGeometry x="0.0486" y="1" width="50" height="50" relative="1" as="geometry">
            <mxPoint x="314" y="169" as="sourcePoint" />
            <mxPoint x="509" y="192" as="targetPoint" />
            <mxPoint as="offset" />
          </mxGeometry>
        </mxCell>
        <mxCell id="4xQbK2JNPyIcANhsIO05-17" value="&lt;font style=&quot;font-size: 24px&quot;&gt;隶属&lt;/font&gt;" style="rhombus;whiteSpace=wrap;html=1;strokeWidth=2;gradientColor=none;" parent="1" vertex="1">
          <mxGeometry x="492" y="268" width="160" height="80" as="geometry" />
        </mxCell>
        <mxCell id="4xQbK2JNPyIcANhsIO05-18" value="m" style="endArrow=none;html=1;entryX=0.5;entryY=0;entryDx=0;entryDy=0;exitX=0.5;exitY=1;exitDx=0;exitDy=0;strokeWidth=2;fontSize=20;verticalAlign=bottom;" parent="1" source="4xQbK2JNPyIcANhsIO05-4" target="4xQbK2JNPyIcANhsIO05-17" edge="1">
          <mxGeometry x="0.4783" y="-19" width="50" height="50" relative="1" as="geometry">
            <mxPoint x="637" y="44" as="sourcePoint" />
            <mxPoint x="793" y="119" as="targetPoint" />
            <mxPoint as="offset" />
          </mxGeometry>
        </mxCell>
        <mxCell id="4xQbK2JNPyIcANhsIO05-19" value="n" style="endArrow=none;html=1;entryX=0.5;entryY=1;entryDx=0;entryDy=0;strokeWidth=2;fontSize=20;verticalAlign=bottom;exitX=0.5;exitY=0;exitDx=0;exitDy=0;" parent="1" source="4xQbK2JNPyIcANhsIO05-5" target="4xQbK2JNPyIcANhsIO05-17" edge="1">
          <mxGeometry x="-0.2143" y="-15" width="50" height="50" relative="1" as="geometry">
            <mxPoint x="647" y="54" as="sourcePoint" />
            <mxPoint x="803" y="129" as="targetPoint" />
            <mxPoint as="offset" />
          </mxGeometry>
        </mxCell>
        <mxCell id="4xQbK2JNPyIcANhsIO05-20" value="&lt;font style=&quot;font-size: 24px&quot;&gt;包含&lt;/font&gt;" style="rhombus;whiteSpace=wrap;html=1;strokeWidth=2;gradientColor=none;" parent="1" vertex="1">
          <mxGeometry x="675" y="152" width="160" height="80" as="geometry" />
        </mxCell>
        <mxCell id="4xQbK2JNPyIcANhsIO05-21" value="n" style="endArrow=none;html=1;exitX=1;exitY=0.5;exitDx=0;exitDy=0;strokeWidth=2;fontSize=20;verticalAlign=bottom;entryX=0;entryY=0.5;entryDx=0;entryDy=0;" parent="1" source="4xQbK2JNPyIcANhsIO05-4" target="4xQbK2JNPyIcANhsIO05-20" edge="1">
          <mxGeometry x="0.1132" y="12" width="50" height="50" relative="1" as="geometry">
            <mxPoint x="793" y="179" as="sourcePoint" />
            <mxPoint x="725" y="192" as="targetPoint" />
            <mxPoint as="offset" />
          </mxGeometry>
        </mxCell>
        <mxCell id="4xQbK2JNPyIcANhsIO05-22" value="1" style="endArrow=none;html=1;entryX=0;entryY=0.5;entryDx=0;entryDy=0;exitX=1;exitY=0.5;exitDx=0;exitDy=0;strokeWidth=2;fontSize=20;verticalAlign=bottom;" parent="1" source="4xQbK2JNPyIcANhsIO05-20" target="4xQbK2JNPyIcANhsIO05-6" edge="1">
          <mxGeometry x="0.1132" y="12" width="50" height="50" relative="1" as="geometry">
            <mxPoint x="803" y="189" as="sourcePoint" />
            <mxPoint x="660" y="222" as="targetPoint" />
            <mxPoint as="offset" />
          </mxGeometry>
        </mxCell>
        <mxCell id="4xQbK2JNPyIcANhsIO05-28" value="" style="edgeStyle=orthogonalEdgeStyle;rounded=0;orthogonalLoop=1;jettySize=auto;html=1;labelBackgroundColor=none;fontSize=20;strokeWidth=2;verticalAlign=bottom;" parent="1" source="4xQbK2JNPyIcANhsIO05-23" target="4xQbK2JNPyIcANhsIO05-25" edge="1">
          <mxGeometry relative="1" as="geometry" />
        </mxCell>
        <mxCell id="4xQbK2JNPyIcANhsIO05-23" value="&lt;p style=&quot;margin-top: 0pt ; margin-bottom: 0pt ; margin-left: 0in ; direction: ltr ; unicode-bidi: embed ; word-break: normal&quot;&gt;&lt;span style=&quot;font-size: 24px&quot;&gt;规格参数&lt;/span&gt;&lt;/p&gt;" style="rounded=0;whiteSpace=wrap;html=1;gradientColor=none;strokeWidth=2;" parent="1" vertex="1">
          <mxGeometry x="878" y="402" width="120" height="60" as="geometry" />
        </mxCell>
        <mxCell id="4xQbK2JNPyIcANhsIO05-25" value="&lt;font style=&quot;font-size: 24px&quot;&gt;包含&lt;/font&gt;" style="rhombus;whiteSpace=wrap;html=1;strokeWidth=2;gradientColor=none;" parent="1" vertex="1">
          <mxGeometry x="858" y="264" width="160" height="80" as="geometry" />
        </mxCell>
        <mxCell id="4xQbK2JNPyIcANhsIO05-26" value="1" style="endArrow=none;html=1;entryX=0.5;entryY=0;entryDx=0;entryDy=0;strokeWidth=2;fontSize=20;verticalAlign=bottom;exitX=0.5;exitY=1;exitDx=0;exitDy=0;" parent="1" source="4xQbK2JNPyIcANhsIO05-6" target="4xQbK2JNPyIcANhsIO05-25" edge="1">
          <mxGeometry x="0.7143" y="32" width="50" height="50" relative="1" as="geometry">
            <mxPoint x="875" y="446" as="sourcePoint" />
            <mxPoint x="830" y="546" as="targetPoint" />
            <mxPoint as="offset" />
          </mxGeometry>
        </mxCell>
        <mxCell id="4xQbK2JNPyIcANhsIO05-27" value="m" style="endArrow=none;html=1;entryX=0.5;entryY=0;entryDx=0;entryDy=0;exitX=0.5;exitY=1;exitDx=0;exitDy=0;strokeWidth=2;fontSize=20;verticalAlign=bottom;labelBackgroundColor=none;" parent="1" source="4xQbK2JNPyIcANhsIO05-25" target="4xQbK2JNPyIcANhsIO05-23" edge="1">
          <mxGeometry x="0.5862" y="-16" width="50" height="50" relative="1" as="geometry">
            <mxPoint x="805" y="586" as="sourcePoint" />
            <mxPoint x="662" y="619" as="targetPoint" />
            <mxPoint as="offset" />
          </mxGeometry>
        </mxCell>
      </root>
    </mxGraphModel>
  </diagram>
</mxfile>
